<svg width="14" height="14" viewBox="0 0 14 14" fill="none" xmlns="http://www.w3.org/2000/svg">
<path d="M7.69636 10.3878L7.7094 10.376L7.72114 10.363C7.79872 10.2768 7.87087 10.1772 7.9228 10.044C7.96937 9.93094 8.00004 9.80223 8.00004 9.66668C8.00004 9.52944 7.96861 9.39923 7.92107 9.28514C7.87275 9.16918 7.80543 9.06402 7.72114 8.97035L7.7094 8.95731L7.69636 8.94558C7.6027 8.86128 7.49754 8.79397 7.38158 8.74565L7.25337 9.05334L7.38158 8.74565C7.13953 8.6448 6.86055 8.6448 6.6185 8.74565L6.74671 9.05334L6.6185 8.74565C6.50254 8.79397 6.39738 8.86128 6.30372 8.94558L6.29068 8.95731L6.27894 8.97035C6.19465 9.06402 6.12733 9.16918 6.07901 9.28514C6.03147 9.39923 6.00004 9.52944 6.00004 9.66668C6.00004 9.80222 6.03071 9.93092 6.07727 10.044C6.1292 10.1771 6.20136 10.2768 6.27894 10.363L6.29068 10.376L6.30372 10.3878C6.39738 10.4721 6.50254 10.5394 6.6185 10.5877C6.7326 10.6352 6.86281 10.6667 7.00004 10.6667C7.13727 10.6667 7.26748 10.6352 7.38158 10.5877C7.49754 10.5394 7.6027 10.4721 7.69636 10.3878ZM0.666707 7.00001C0.666707 3.51077 3.5108 0.666677 7.00004 0.666677C10.4893 0.666677 13.3334 3.51077 13.3334 7.00001C13.3334 10.4892 10.4893 13.3333 7.00004 13.3333C3.5108 13.3333 0.666707 10.4892 0.666707 7.00001ZM7.00004 3.50001C6.54261 3.50001 6.16671 3.87592 6.16671 4.33334V7.66668C6.16671 8.1241 6.54261 8.50001 7.00004 8.50001C7.45747 8.50001 7.83337 8.1241 7.83337 7.66668V4.33334C7.83337 3.87592 7.45747 3.50001 7.00004 3.50001Z" fill="#D64751" stroke="#D64751" stroke-width="0.666667"/>
</svg>
