<svg width="16" height="16" viewBox="0 0 16 16" fill="none" xmlns="http://www.w3.org/2000/svg">
<g id="vuesax/linear/eye">
<g id="eye">
<path id="Vector" d="M10.3866 8.00001C10.3866 9.32001 9.31995 10.3867 7.99995 10.3867C6.67995 10.3867 5.61328 9.32001 5.61328 8.00001C5.61328 6.68001 6.67995 5.61334 7.99995 5.61334C9.31995 5.61334 10.3866 6.68001 10.3866 8.00001Z" stroke="#909090" stroke-linecap="round" stroke-linejoin="round"/>
<path id="Vector_2" d="M8.00002 13.5133C10.3534 13.5133 12.5467 12.1267 14.0734 9.72668C14.6734 8.78668 14.6734 7.20668 14.0734 6.26668C12.5467 3.86668 10.3534 2.48001 8.00002 2.48001C5.64668 2.48001 3.45335 3.86668 1.92668 6.26668C1.32668 7.20668 1.32668 8.78668 1.92668 9.72668C3.45335 12.1267 5.64668 13.5133 8.00002 13.5133Z" stroke="#909090" stroke-linecap="round" stroke-linejoin="round"/>
</g>
</g>
</svg>
