<svg xmlns="http://www.w3.org/2000/svg" viewBox="0 0 24 24" id="santa">
  <circle cx="20" cy="3" r="1.5" fill="none" stroke-linecap="round" stroke-linejoin="round"></circle>
  <path fill="none" stroke-linecap="round" stroke-linejoin="round"
    d="M18.77 2.17A12.846 12.846 0 0 0 12.5.5c-3.62 0-6.56 3.91-7 5m13-2.5s-3.56.17-.89 2.56"></path>
  <path fill="none" stroke-linecap="round" stroke-linejoin="round"
    d="M5.94 5.5h11.12A2 2 0 0 1 19 6.87l.11.32a1 1 0 0 1-.95 1.32H4.89a1.001 1.001 0 0 1-.95-1.32L4 6.87A2 2 0 0 1 5.94 5.5z">
  </path>
  <path fill="none" stroke-linecap="round" stroke-linejoin="round"
    d="M5 8.5S2.5 10 2.5 12s1 2.5 1 2.5-1 2 0 3a3.133 3.133 0 0 0 2 1s2 5.88 6 4c0 .77-1 1-1 1 4.52 0 7-5 7-5a3.133 3.133 0 0 0 2-1c1-1 0-3 0-3s1-.48 1-2.5S18 8.5 18 8.5">
  </path>
  <path fill="none" stroke-linecap="round" stroke-linejoin="round"
    d="M17.5 8.5a8.993 8.993 0 0 1 1 3.5 2.33 2.33 0 0 1-2.5 2.5c-1.44 0-2.25-1-4.5-1s-3.06 1-4.5 1A2.33 2.33 0 0 1 4.5 12a8.993 8.993 0 0 1 1-3.5m4 7a2.5 2.5 0 0 0 4 0">
  </path>
  <circle cx="9" cy="11" r=".5" fill="none" stroke-linecap="round" stroke-linejoin="round"></circle>
  <circle cx="14" cy="11" r=".5" fill="none" stroke-linecap="round" stroke-linejoin="round"></circle>
</svg>