<svg width="16" height="16" viewBox="0 0 16 16" fill="none" xmlns="http://www.w3.org/2000/svg">
<g id="vuesax/bold/tick-circle">
<g id="tick-circle">
<path id="Vector" d="M11.4224 6.70238L11.4224 6.70241L11.4264 6.69835C11.7424 6.37139 11.7481 5.84998 11.4224 5.52431C11.0989 5.2008 10.5678 5.2008 10.2443 5.52431L7.05337 8.71527L5.75574 7.41764C5.43223 7.09413 4.90118 7.09413 4.57767 7.41764C4.25416 7.74115 4.25416 8.2722 4.57767 8.59571L6.46434 10.4824C6.61947 10.6375 6.83063 10.7267 7.05337 10.7267C7.27612 10.7267 7.48728 10.6375 7.64241 10.4824L11.4224 6.70238ZM1.66671 8.00001C1.66671 4.51077 4.5108 1.66668 8.00004 1.66668C11.4893 1.66668 14.3334 4.51077 14.3334 8.00001C14.3334 11.4892 11.4893 14.3333 8.00004 14.3333C4.5108 14.3333 1.66671 11.4892 1.66671 8.00001Z" fill="#64C661" stroke="#64C661" stroke-width="0.666667"/>
</g>
</g>
</svg>
