<svg width="14" height="15" viewBox="0 0 14 15" fill="none" xmlns="http://www.w3.org/2000/svg">
  <path
    d="M4.55056 6.756H3.03371V8.256H4.55056V6.756ZM7.58427 6.756H6.06742V8.256H7.58427V6.756ZM10.618 6.756H9.10112V8.256H10.618V6.756ZM12.1348 1.5H11.3703V0H9.85348V1.5H3.78607V0H2.26921V1.5H1.51685C0.679551 1.5 0.0121348 2.172 0.0121348 3L0 13.5C0 14.328 0.679551 15 1.51685 15H12.1348C12.9721 15 13.6517 14.328 13.6517 13.5V3C13.6517 2.172 12.96 1.5 12.1348 1.5ZM12.1348 13.5H1.51685V5.256H12.1348V13.5Z"
    fill="#CED1D7" />
</svg>